<?xml version="1.0" ?><svg viewBox="0 0 64 64" xmlns="http://www.w3.org/2000/svg"><g id="Smartphone-Smartwatch-Sync"><path d="M44,9H54a1,1,0,0,1,1,1V27a0,0,0,0,1,0,0H43a0,0,0,0,1,0,0V10A1,1,0,0,1,44,9Z" style="fill:#ffb655"/><path d="M43,38H55a0,0,0,0,1,0,0V54a1,1,0,0,1-1,1H44a1,1,0,0,1-1-1V38A0,0,0,0,1,43,38Z" style="fill:#ffb655"/><path d="M3,57a4,4,0,0,0,4,4H31a4,4,0,0,0,4-4V53H3Z" style="fill:#898890"/><path d="M31,3H7A4,4,0,0,0,3,7v4H35V7A4,4,0,0,0,31,3Z" style="fill:#898890"/><path d="M59,32A9.989,9.989,0,0,1,49,42a10,10,0,1,1,7.93-16.08A9.832,9.832,0,0,1,58.8,30,10.048,10.048,0,0,1,59,32Z" style="fill:#ff7956"/><path d="M60,30H58.8a10.1,10.1,0,0,1,0,4H60a1,1,0,0,0,1-1V31A1,1,0,0,0,60,30Z" style="fill:#bddbff"/><rect height="42" style="fill:#ffe477" width="32" x="3" y="11"/><path d="M35,11V53H3V48.18C14.97,42.82,30.28,31.97,33.53,11Z" style="fill:#ffde55"/><path d="M59,32A9.989,9.989,0,0,1,49,42a9.947,9.947,0,0,1-6.28-2.22A34.654,34.654,0,0,0,56.93,25.92,9.832,9.832,0,0,1,58.8,30,10.048,10.048,0,0,1,59,32Z" style="fill:#ff6243"/><path d="M31,2H7A5.006,5.006,0,0,0,2,7V57a5.006,5.006,0,0,0,5,5H31a5.006,5.006,0,0,0,5-5V41a1,1,0,0,0-2,0V52H4V12H34V23a1,1,0,0,0,2,0V7A5.006,5.006,0,0,0,31,2Zm3,52v3a3,3,0,0,1-3,3H7a3,3,0,0,1-3-3V54ZM4,10V7A3,3,0,0,1,7,4H31a3,3,0,0,1,3,3v3Z"/><path d="M9,6H7A1,1,0,0,0,7,8H9A1,1,0,0,0,9,6Z"/><path d="M18,6H13a1,1,0,0,0,0,2h5a1,1,0,0,0,0-2Z"/><path d="M17,58h4a1,1,0,0,0,0-2H17a1,1,0,0,0,0,2Z"/><path d="M60,29h-.421A10.99,10.99,0,0,0,56,23.53V10a2,2,0,0,0-2-2H44a2,2,0,0,0-2,2V23.521a10.987,10.987,0,0,0,0,16.958V54a2,2,0,0,0,2,2H54a2,2,0,0,0,2-2V40.47A10.994,10.994,0,0,0,59.58,35H60a2,2,0,0,0,2-2V31A2,2,0,0,0,60,29ZM44,10H54V22.221a10.876,10.876,0,0,0-10-.007ZM54,54H44V41.786a10.876,10.876,0,0,0,10-.007ZM49,41a8.994,8.994,0,1,1,8.819-7.2v0A9.03,9.03,0,0,1,49,41Zm11-8h-.045c.03-.332.045-.666.045-1Z"/><path d="M36,34a1,1,0,0,0-1-1H25a1,1,0,0,0-.707,1.707l3,3a1,1,0,0,0,1.414-1.414L27.414,35H35A1,1,0,0,0,36,34Z"/><path d="M24,30a1,1,0,0,0,1,1H35a1,1,0,0,0,.707-1.707l-3-3a1,1,0,0,0-1.414,1.414L32.586,29H25A1,1,0,0,0,24,30Z"/></g></svg>